# xmcd
#
# Track frame offsets:
# 150
# 17522
# 32452
# 44235
# 58893
# 71650
# 83146
# 102315
# 112294
# 128298
# 140436
# 153548
# 167480
# 177760
# 192728
# 205216
#
# Disc length: 2933 seconds
#
#
# Revision: 0
# Processed by: cddbd v1.5PL3 Copyright (c) Steve Scherf et al.
# Submitted via: FreeRIP 2.35 
#
DISCID=e30b7310
DTITLE=Kenny Rogers - Keny Rogers
DYEAR=1198
DGENRE=Country
TTITLE0=Something's burning
TTITLE1=For the good times
TTITLE2=Elvira
TTITLE3=All god's lonely children
TTITLE4=Ruby, don't take your love to town
TTITLE5=Me and Bobby McGhee
TTITLE6=Lay it down
TTITLE7=Where does Rosie go
TTITLE8=Tulsa turnaround
TTITLE9=Rueben James
TTITLE10=Shine on ruby mountain
TTITLE11=Sunshine
TTITLE12=Ticket to nowhere
TTITLE13=Tell it all brother
TTITLE14=Love woman
TTITLE15=Head the call
EXTD=
EXTT0=
EXTT1=
EXTT2=
EXTT3=
EXTT4=
EXTT5=
EXTT6=
EXTT7=
EXTT8=
EXTT9=
EXTT10=
EXTT11=
EXTT12=
EXTT13=
EXTT14=
EXTT15=
PLAYORDER=
